<svg xmlns="http://www.w3.org/2000/svg" version="1.1" xmlns:xlink="http://www.w3.org/1999/xlink" xmlns:svgjs="http://svgjs.dev/svgjs" width="1440" height="560" preserveAspectRatio="none" viewBox="0 0 1440 560"><g mask="url(&quot;#SvgjsMask1000&quot;)" fill="none"><rect width="1440" height="560" x="0" y="0" fill="#0e2a47"></rect><path d="M302.68 400.29L367.63 437.79L367.63 512.79L302.68 550.29L237.72 512.79L237.72 437.79zM432.58 -49.71L497.54 -12.21L497.54 62.79L432.58 100.29L367.63 62.79L367.63 -12.21zM432.58 175.29L497.54 212.79L497.54 287.79L432.58 325.29L367.63 287.79L367.63 212.79zM562.49 175.29L627.44 212.79L627.44 287.79L562.49 325.29L497.54 287.79L497.54 212.79zM627.44 512.79L692.4 550.29L692.4 625.29L627.44 662.79L562.49 625.29L562.49 550.29zM692.4 -49.71L757.35 -12.21L757.35 62.79L692.4 100.29L627.44 62.79L627.44 -12.21zM757.35 512.79L822.31 550.29L822.31 625.29L757.35 662.79L692.4 625.29L692.4 550.29zM822.3 -49.71L887.26 -12.21L887.26 62.79L822.3 100.29L757.35 62.79L757.35 -12.21zM822.3 400.29L887.26 437.79L887.26 512.79L822.3 550.29L757.35 512.79L757.35 437.79zM887.26 512.79L952.21 550.29L952.21 625.29L887.26 662.79L822.3 625.29L822.3 550.29zM1017.17 287.79L1082.12 325.29L1082.12 400.29L1017.17 437.79L952.21 400.29L952.21 325.29zM1082.12 -49.71L1147.07 -12.21L1147.07 62.79L1082.12 100.29L1017.17 62.79L1017.17 -12.21zM1147.07 287.79L1212.03 325.29L1212.03 400.29L1147.07 437.79L1082.12 400.29L1082.12 325.29zM1276.98 62.79L1341.93 100.29L1341.93 175.29L1276.98 212.79L1212.03 175.29L1212.03 100.29zM1536.8 62.79L1601.75 100.29L1601.75 175.29L1536.8 212.79L1471.84 175.29L1471.84 100.29zM1536.8 287.79L1601.75 325.29L1601.75 400.29L1536.8 437.79L1471.84 400.29L1471.84 325.29zM1536.8 512.79L1601.75 550.29L1601.75 625.29L1536.8 662.79L1471.84 625.29L1471.84 550.29z" stroke="#03305d" stroke-width="2"></path><path d="M295.18 400.29 a7.5 7.5 0 1 0 15 0 a7.5 7.5 0 1 0 -15 0zM360.13 437.79 a7.5 7.5 0 1 0 15 0 a7.5 7.5 0 1 0 -15 0zM360.13 512.79 a7.5 7.5 0 1 0 15 0 a7.5 7.5 0 1 0 -15 0zM295.18 550.29 a7.5 7.5 0 1 0 15 0 a7.5 7.5 0 1 0 -15 0zM230.22 512.79 a7.5 7.5 0 1 0 15 0 a7.5 7.5 0 1 0 -15 0zM230.22 437.79 a7.5 7.5 0 1 0 15 0 a7.5 7.5 0 1 0 -15 0zM425.08 -49.71 a7.5 7.5 0 1 0 15 0 a7.5 7.5 0 1 0 -15 0zM490.04 -12.21 a7.5 7.5 0 1 0 15 0 a7.5 7.5 0 1 0 -15 0zM490.04 62.79 a7.5 7.5 0 1 0 15 0 a7.5 7.5 0 1 0 -15 0zM425.08 100.29 a7.5 7.5 0 1 0 15 0 a7.5 7.5 0 1 0 -15 0zM360.13 62.79 a7.5 7.5 0 1 0 15 0 a7.5 7.5 0 1 0 -15 0zM360.13 -12.21 a7.5 7.5 0 1 0 15 0 a7.5 7.5 0 1 0 -15 0zM425.08 175.29 a7.5 7.5 0 1 0 15 0 a7.5 7.5 0 1 0 -15 0zM490.04 212.79 a7.5 7.5 0 1 0 15 0 a7.5 7.5 0 1 0 -15 0zM490.04 287.79 a7.5 7.5 0 1 0 15 0 a7.5 7.5 0 1 0 -15 0zM425.08 325.29 a7.5 7.5 0 1 0 15 0 a7.5 7.5 0 1 0 -15 0zM360.13 287.79 a7.5 7.5 0 1 0 15 0 a7.5 7.5 0 1 0 -15 0zM360.13 212.79 a7.5 7.5 0 1 0 15 0 a7.5 7.5 0 1 0 -15 0zM554.99 175.29 a7.5 7.5 0 1 0 15 0 a7.5 7.5 0 1 0 -15 0zM619.94 212.79 a7.5 7.5 0 1 0 15 0 a7.5 7.5 0 1 0 -15 0zM619.94 287.79 a7.5 7.5 0 1 0 15 0 a7.5 7.5 0 1 0 -15 0zM554.99 325.29 a7.5 7.5 0 1 0 15 0 a7.5 7.5 0 1 0 -15 0zM619.94 512.79 a7.5 7.5 0 1 0 15 0 a7.5 7.5 0 1 0 -15 0zM684.9 550.29 a7.5 7.5 0 1 0 15 0 a7.5 7.5 0 1 0 -15 0zM684.9 625.29 a7.5 7.5 0 1 0 15 0 a7.5 7.5 0 1 0 -15 0zM619.94 662.79 a7.5 7.5 0 1 0 15 0 a7.5 7.5 0 1 0 -15 0zM554.99 625.29 a7.5 7.5 0 1 0 15 0 a7.5 7.5 0 1 0 -15 0zM554.99 550.29 a7.5 7.5 0 1 0 15 0 a7.5 7.5 0 1 0 -15 0zM684.9 -49.71 a7.5 7.5 0 1 0 15 0 a7.5 7.5 0 1 0 -15 0zM749.85 -12.21 a7.5 7.5 0 1 0 15 0 a7.5 7.5 0 1 0 -15 0zM749.85 62.79 a7.5 7.5 0 1 0 15 0 a7.5 7.5 0 1 0 -15 0zM684.9 100.29 a7.5 7.5 0 1 0 15 0 a7.5 7.5 0 1 0 -15 0zM619.94 62.79 a7.5 7.5 0 1 0 15 0 a7.5 7.5 0 1 0 -15 0zM619.94 -12.21 a7.5 7.5 0 1 0 15 0 a7.5 7.5 0 1 0 -15 0zM749.85 512.79 a7.5 7.5 0 1 0 15 0 a7.5 7.5 0 1 0 -15 0zM814.81 550.29 a7.5 7.5 0 1 0 15 0 a7.5 7.5 0 1 0 -15 0zM814.81 625.29 a7.5 7.5 0 1 0 15 0 a7.5 7.5 0 1 0 -15 0zM749.85 662.79 a7.5 7.5 0 1 0 15 0 a7.5 7.5 0 1 0 -15 0zM814.8 -49.71 a7.5 7.5 0 1 0 15 0 a7.5 7.5 0 1 0 -15 0zM879.76 -12.21 a7.5 7.5 0 1 0 15 0 a7.5 7.5 0 1 0 -15 0zM879.76 62.79 a7.5 7.5 0 1 0 15 0 a7.5 7.5 0 1 0 -15 0zM814.8 100.29 a7.5 7.5 0 1 0 15 0 a7.5 7.5 0 1 0 -15 0zM814.8 400.29 a7.5 7.5 0 1 0 15 0 a7.5 7.5 0 1 0 -15 0zM879.76 437.79 a7.5 7.5 0 1 0 15 0 a7.5 7.5 0 1 0 -15 0zM879.76 512.79 a7.5 7.5 0 1 0 15 0 a7.5 7.5 0 1 0 -15 0zM814.8 550.29 a7.5 7.5 0 1 0 15 0 a7.5 7.5 0 1 0 -15 0zM749.85 437.79 a7.5 7.5 0 1 0 15 0 a7.5 7.5 0 1 0 -15 0zM944.71 550.29 a7.5 7.5 0 1 0 15 0 a7.5 7.5 0 1 0 -15 0zM944.71 625.29 a7.5 7.5 0 1 0 15 0 a7.5 7.5 0 1 0 -15 0zM879.76 662.79 a7.5 7.5 0 1 0 15 0 a7.5 7.5 0 1 0 -15 0zM814.8 625.29 a7.5 7.5 0 1 0 15 0 a7.5 7.5 0 1 0 -15 0zM1009.67 287.79 a7.5 7.5 0 1 0 15 0 a7.5 7.5 0 1 0 -15 0zM1074.62 325.29 a7.5 7.5 0 1 0 15 0 a7.5 7.5 0 1 0 -15 0zM1074.62 400.29 a7.5 7.5 0 1 0 15 0 a7.5 7.5 0 1 0 -15 0zM1009.67 437.79 a7.5 7.5 0 1 0 15 0 a7.5 7.5 0 1 0 -15 0zM944.71 400.29 a7.5 7.5 0 1 0 15 0 a7.5 7.5 0 1 0 -15 0zM944.71 325.29 a7.5 7.5 0 1 0 15 0 a7.5 7.5 0 1 0 -15 0zM1074.62 -49.71 a7.5 7.5 0 1 0 15 0 a7.5 7.5 0 1 0 -15 0zM1139.57 -12.21 a7.5 7.5 0 1 0 15 0 a7.5 7.5 0 1 0 -15 0zM1139.57 62.79 a7.5 7.5 0 1 0 15 0 a7.5 7.5 0 1 0 -15 0zM1074.62 100.29 a7.5 7.5 0 1 0 15 0 a7.5 7.5 0 1 0 -15 0zM1009.67 62.79 a7.5 7.5 0 1 0 15 0 a7.5 7.5 0 1 0 -15 0zM1009.67 -12.21 a7.5 7.5 0 1 0 15 0 a7.5 7.5 0 1 0 -15 0zM1139.57 287.79 a7.5 7.5 0 1 0 15 0 a7.5 7.5 0 1 0 -15 0zM1204.53 325.29 a7.5 7.5 0 1 0 15 0 a7.5 7.5 0 1 0 -15 0zM1204.53 400.29 a7.5 7.5 0 1 0 15 0 a7.5 7.5 0 1 0 -15 0zM1139.57 437.79 a7.5 7.5 0 1 0 15 0 a7.5 7.5 0 1 0 -15 0zM1269.48 62.79 a7.5 7.5 0 1 0 15 0 a7.5 7.5 0 1 0 -15 0zM1334.43 100.29 a7.5 7.5 0 1 0 15 0 a7.5 7.5 0 1 0 -15 0zM1334.43 175.29 a7.5 7.5 0 1 0 15 0 a7.5 7.5 0 1 0 -15 0zM1269.48 212.79 a7.5 7.5 0 1 0 15 0 a7.5 7.5 0 1 0 -15 0zM1204.53 175.29 a7.5 7.5 0 1 0 15 0 a7.5 7.5 0 1 0 -15 0zM1204.53 100.29 a7.5 7.5 0 1 0 15 0 a7.5 7.5 0 1 0 -15 0zM1529.3 62.79 a7.5 7.5 0 1 0 15 0 a7.5 7.5 0 1 0 -15 0zM1594.25 100.29 a7.5 7.5 0 1 0 15 0 a7.5 7.5 0 1 0 -15 0zM1594.25 175.29 a7.5 7.5 0 1 0 15 0 a7.5 7.5 0 1 0 -15 0zM1529.3 212.79 a7.5 7.5 0 1 0 15 0 a7.5 7.5 0 1 0 -15 0zM1464.34 175.29 a7.5 7.5 0 1 0 15 0 a7.5 7.5 0 1 0 -15 0zM1464.34 100.29 a7.5 7.5 0 1 0 15 0 a7.5 7.5 0 1 0 -15 0zM1529.3 287.79 a7.5 7.5 0 1 0 15 0 a7.5 7.5 0 1 0 -15 0zM1594.25 325.29 a7.5 7.5 0 1 0 15 0 a7.5 7.5 0 1 0 -15 0zM1594.25 400.29 a7.5 7.5 0 1 0 15 0 a7.5 7.5 0 1 0 -15 0zM1529.3 437.79 a7.5 7.5 0 1 0 15 0 a7.5 7.5 0 1 0 -15 0zM1464.34 400.29 a7.5 7.5 0 1 0 15 0 a7.5 7.5 0 1 0 -15 0zM1464.34 325.29 a7.5 7.5 0 1 0 15 0 a7.5 7.5 0 1 0 -15 0zM1529.3 512.79 a7.5 7.5 0 1 0 15 0 a7.5 7.5 0 1 0 -15 0zM1594.25 550.29 a7.5 7.5 0 1 0 15 0 a7.5 7.5 0 1 0 -15 0zM1594.25 625.29 a7.5 7.5 0 1 0 15 0 a7.5 7.5 0 1 0 -15 0zM1529.3 662.79 a7.5 7.5 0 1 0 15 0 a7.5 7.5 0 1 0 -15 0zM1464.34 625.29 a7.5 7.5 0 1 0 15 0 a7.5 7.5 0 1 0 -15 0zM1464.34 550.29 a7.5 7.5 0 1 0 15 0 a7.5 7.5 0 1 0 -15 0z" fill="#03305d"></path><path d="M64.47 203.26L107.78 228.26L107.78 278.26L64.47 303.26L21.17 278.26L21.17 228.26zM21.17 428.26L64.47 453.26L64.47 503.26L21.17 528.26L-22.13 503.26L-22.13 453.26zM151.08 353.26L194.38 378.26L194.38 428.26L151.08 453.26L107.78 428.26L107.78 378.26zM107.78 428.26L151.08 453.26L151.08 503.26L107.78 528.26L64.47 503.26L64.47 453.26zM151.08 503.26L194.38 528.26L194.38 578.26L151.08 603.26L107.78 578.26L107.78 528.26zM194.38 128.26L237.68 153.26L237.68 203.26L194.38 228.26L151.08 203.26L151.08 153.26zM280.99 -21.74L324.29 3.26L324.29 53.26L280.99 78.26L237.68 53.26L237.68 3.26zM324.29 203.26L367.59 228.26L367.59 278.26L324.29 303.26L280.99 278.26L280.99 228.26zM280.99 428.26L324.29 453.26L324.29 503.26L280.99 528.26L237.68 503.26L237.68 453.26zM367.59 128.26L410.89 153.26L410.89 203.26L367.59 228.26L324.29 203.26L324.29 153.26zM410.89 203.26L454.2 228.26L454.2 278.26L410.89 303.26L367.59 278.26L367.59 228.26zM410.89 353.26L454.2 378.26L454.2 428.26L410.89 453.26L367.59 428.26L367.59 378.26zM410.89 503.26L454.2 528.26L454.2 578.26L410.89 603.26L367.59 578.26L367.59 528.26zM497.5 53.26L540.8 78.26L540.8 128.26L497.5 153.26L454.2 128.26L454.2 78.26zM454.2 128.26L497.5 153.26L497.5 203.26L454.2 228.26L410.89 203.26L410.89 153.26zM497.5 353.26L540.8 378.26L540.8 428.26L497.5 453.26L454.2 428.26L454.2 378.26zM454.2 428.26L497.5 453.26L497.5 503.26L454.2 528.26L410.89 503.26L410.89 453.26zM540.8 128.26L584.1 153.26L584.1 203.26L540.8 228.26L497.5 203.26L497.5 153.26zM584.1 203.26L627.4 228.26L627.4 278.26L584.1 303.26L540.8 278.26L540.8 228.26zM670.71 353.26L714.01 378.26L714.01 428.26L670.71 453.26L627.4 428.26L627.4 378.26zM757.31 53.26L800.62 78.26L800.62 128.26L757.31 153.26L714.01 128.26L714.01 78.26zM714.01 128.26L757.31 153.26L757.31 203.26L714.01 228.26L670.71 203.26L670.71 153.26zM714.01 428.26L757.31 453.26L757.31 503.26L714.01 528.26L670.71 503.26L670.71 453.26zM843.92 53.26L887.22 78.26L887.22 128.26L843.92 153.26L800.62 128.26L800.62 78.26zM843.92 203.26L887.22 228.26L887.22 278.26L843.92 303.26L800.62 278.26L800.62 228.26zM800.62 428.26L843.92 453.26L843.92 503.26L800.62 528.26L757.31 503.26L757.31 453.26zM887.22 128.26L930.52 153.26L930.52 203.26L887.22 228.26L843.92 203.26L843.92 153.26zM973.83 -21.74L1017.13 3.26L1017.13 53.26L973.83 78.26L930.52 53.26L930.52 3.26zM1017.13 53.26L1060.43 78.26L1060.43 128.26L1017.13 153.26L973.83 128.26L973.83 78.26zM1017.13 203.26L1060.43 228.26L1060.43 278.26L1017.13 303.26L973.83 278.26L973.83 228.26zM1017.13 353.26L1060.43 378.26L1060.43 428.26L1017.13 453.26L973.83 428.26L973.83 378.26zM973.83 428.26L1017.13 453.26L1017.13 503.26L973.83 528.26L930.52 503.26L930.52 453.26zM1060.43 -21.74L1103.73 3.26L1103.73 53.26L1060.43 78.26L1017.13 53.26L1017.13 3.26zM1060.43 278.26L1103.73 303.26L1103.73 353.26L1060.43 378.26L1017.13 353.26L1017.13 303.26zM1103.73 353.26L1147.04 378.26L1147.04 428.26L1103.73 453.26L1060.43 428.26L1060.43 378.26zM1147.04 -21.74L1190.34 3.26L1190.34 53.26L1147.04 78.26L1103.73 53.26L1103.73 3.26zM1233.64 -21.74L1276.94 3.26L1276.94 53.26L1233.64 78.26L1190.34 53.26L1190.34 3.26zM1276.94 353.26L1320.25 378.26L1320.25 428.26L1276.94 453.26L1233.64 428.26L1233.64 378.26zM1320.25 128.26L1363.55 153.26L1363.55 203.26L1320.25 228.26L1276.94 203.26L1276.94 153.26zM1363.55 203.26L1406.85 228.26L1406.85 278.26L1363.55 303.26L1320.25 278.26L1320.25 228.26zM1406.85 128.26L1450.15 153.26L1450.15 203.26L1406.85 228.26L1363.55 203.26L1363.55 153.26z" stroke="rgba(6, 80, 156, 0.93)" stroke-width="2"></path></g><defs><mask id="SvgjsMask1000"><rect width="1440" height="560" fill="#ffffff"></rect></mask></defs></svg>